<svg width="54" height="80" viewBox="0 0 54 80" fill="none" xmlns="http://www.w3.org/2000/svg">
<path fill-rule="evenodd" clip-rule="evenodd" d="M26.6837 0.195936C26.5942 0.305247 26.2987 1.16306 26.0272 2.10253C24.9263 5.91128 22.8674 10.7086 20.7571 14.3828C19.0849 17.2945 17.8008 19.1215 11.4937 27.5636C6.11277 34.7657 4.37814 37.3967 2.82804 40.7062C0.11987 46.488 -0.675994 52.8657 0.582077 58.7047C1.25689 61.8362 3.04256 65.8712 4.87129 68.3965C7.92205 72.6095 11.4119 75.5021 15.8025 77.4572C19.067 78.9108 21.7932 79.6064 25.4518 79.9194C32.2259 80.4987 39.5438 77.9327 45.2228 72.9867C48.5089 70.1249 51.489 65.6617 52.796 61.6443C53.8432 58.4261 54.0009 57.323 54 53.2232C53.9989 48.968 53.773 47.4533 52.614 43.9285C51.1001 39.3252 49.2856 36.4102 41.2399 25.657C32.3959 13.8368 30.7836 10.9704 28.2362 2.53946C27.959 1.62191 27.6588 0.674651 27.5693 0.43426C27.3977 -0.0269775 26.9623 -0.144074 26.6837 0.195936ZM26.6059 8.71001C25.5594 11.646 23.4723 15.6178 21.1654 19.0633C19.9114 20.9362 17.037 24.8681 13.0349 30.1851C6.6241 38.7022 4.56219 42.565 3.42629 48.1864C2.80635 51.2545 2.81799 55.3271 3.45484 58.1225C4.09887 60.95 5.31021 63.8191 6.90002 66.2824C9.82877 70.8203 14.9545 74.5865 20.2796 76.1132C23.2076 76.9525 24.4486 77.1009 27.8158 77.0134C30.5589 76.9422 31.067 76.8841 32.7404 76.45C36.3175 75.5221 39.1063 74.1869 41.8024 72.1111C43.7373 70.6214 44.8378 69.5828 45.991 68.1582C49.7167 63.5555 51.385 58.4455 51.1639 52.3125C50.9413 46.1291 49.0116 41.179 44.1849 34.4086C43.4944 33.4402 40.9847 30.0382 38.6078 26.8486C31.4359 17.2253 29.2099 13.636 27.6178 9.12882L27.0398 7.49248L26.6059 8.71001ZM24.8936 33.8534C17.9751 34.7381 12.2889 38.7021 9.29782 44.7255C7.83018 47.6812 6.9946 51.6042 7.24915 54.3441C7.70513 59.2512 9.22381 62.8998 12.2377 66.3288C15.3483 69.8676 19.552 72.0696 24.7341 72.8745C25.8859 73.0534 28.9966 72.9557 30.3703 72.6975C38.1529 71.2345 44.2742 65.6256 46.1619 58.228C46.9045 55.3176 46.9758 51.8632 46.3489 49.1648C45.1763 44.1178 42.1815 39.7999 37.8921 36.972C34.0544 34.4419 29.2694 33.2938 24.8936 33.8534ZM26.01 35.2128C22.7383 35.6127 20.4374 36.2988 18.1547 37.5552C11.7808 41.0639 8.31009 47.4956 8.79988 54.8915C9.31026 62.5998 15.2709 69.3308 23.1321 71.0759C32.5637 73.1695 42.3354 67.2734 44.7374 58.0393C45.1528 56.442 45.494 53.5702 45.3825 52.6075C45.3256 52.1159 45.2531 51.482 45.2214 51.1987C44.812 47.5344 43.0214 43.7417 40.3765 40.9364C37.8405 38.2465 34.0658 36.1871 30.4718 35.5325C28.9702 35.2589 26.8657 35.1081 26.01 35.2128ZM25.1993 40.1018C25.1628 40.1382 24.8298 40.2127 24.4596 40.2677C22.9907 40.4857 20.3862 41.6217 19.0876 42.6109C17.4868 43.8302 15.7914 45.7808 15.0422 47.2651C14.0497 49.2317 13.4982 51.7905 13.6124 53.9C13.8078 57.5134 15.3483 60.7697 17.9869 63.147C20.5876 65.4902 23.4889 66.5694 27.1885 66.5694C29.352 66.5694 30.9024 66.2211 32.8342 65.3012C36.6924 63.4638 39.1738 60.3292 40.1473 56.0623C40.4909 54.5569 40.5442 54.0178 40.4673 52.826C40.0599 46.5169 35.6355 41.4199 29.5611 40.2621C28.4839 40.0569 25.3602 39.942 25.1993 40.1018ZM24.5746 41.7623C20.8699 42.595 17.9597 44.8149 16.3005 48.0739C15.3076 50.0241 15.1241 50.9499 15.2017 53.6126C15.2649 55.776 15.3169 56.1273 15.7486 57.3009C16.6781 59.8286 18.0364 61.5725 20.1841 62.9961C21.7611 64.0415 22.9334 64.542 24.6154 64.8881C27.1958 65.4191 29.9545 65.0838 32.3035 63.9538C35.209 62.556 37.5411 59.9072 38.4323 56.9927C40.0536 51.6904 38.1653 46.5142 33.464 43.3724C32.3619 42.636 31.1834 42.1767 29.3593 41.7728C27.7115 41.408 26.1661 41.4047 24.5746 41.7623ZM26.2712 47.2142C22.8509 47.6655 20.2327 51.1432 20.882 54.3727C21.3179 56.5408 22.4972 58.0863 24.4151 59.0034C25.3628 59.4565 25.5888 59.4991 27.0467 59.4991C28.5009 59.4991 28.734 59.4554 29.6892 59.0046C32.0594 57.8858 33.2894 55.7866 33.1573 53.0866C33.1007 51.9286 33.0063 51.5446 32.5541 50.6326C31.9893 49.4931 30.8882 48.3526 29.8461 47.8282C28.8901 47.3469 27.3154 47.0765 26.2712 47.2142Z" fill="#8D7E5E"/>
</svg>
