<svg width="1440" height="82" viewBox="0 0 1440 82" fill="none" xmlns="http://www.w3.org/2000/svg">
<path d="M0 8.69229L34.4 5.8923C68.8 2.9923 137.6 -2.6077 206.08 1.3923C274.72 5.3923 342.88 18.9923 411.52 21.4923C480 23.9923 548.8 15.3923 617.28 16.6923C685.92 17.9923 754.08 29.3923 822.72 33.9923C891.2 38.6923 960 36.6923 1028.48 33.6923C1097.12 30.6923 1165.28 26.6923 1233.92 23.8923C1302.4 20.9923 1371.2 19.3923 1405.6 18.4923L1440 17.6923V81.6923H1405.6C1371.2 81.6923 1302.4 81.6923 1233.92 81.6923C1165.28 81.6923 1097.12 81.6923 1028.48 81.6923C960 81.6923 891.2 81.6923 822.72 81.6923C754.08 81.6923 685.92 81.6923 617.28 81.6923C548.8 81.6923 480 81.6923 411.52 81.6923C342.88 81.6923 274.72 81.6923 206.08 81.6923C137.6 81.6923 68.8 81.6923 34.4 81.6923H0V8.69229Z" fill="#FFF9F4"/>
</svg>
