<svg width="48" height="48" viewBox="0 0 48 48" fill="none" xmlns="http://www.w3.org/2000/svg">
<path d="M38.1 9.82C36.2661 7.96821 34.082 6.49993 31.675 5.50073C29.268 4.50152 26.6861 3.99137 24.08 4C13.16 4 4.25998 12.9 4.25998 23.82C4.25998 27.32 5.17998 30.72 6.89998 33.72L4.09998 44L14.6 41.24C17.5 42.82 20.76 43.66 24.08 43.66C35 43.66 43.9 34.76 43.9 23.84C43.9 18.54 41.84 13.56 38.1 9.82ZM24.08 40.3C21.12 40.3 18.22 39.5 15.68 38L15.08 37.64L8.83998 39.28L10.5 33.2L10.1 32.58C8.45507 29.9541 7.58183 26.9185 7.57998 23.82C7.57998 14.74 14.98 7.34 24.06 7.34C28.46 7.34 32.6 9.06 35.7 12.18C37.2352 13.7077 38.4518 15.5251 39.2792 17.5267C40.1066 19.5282 40.5284 21.6742 40.52 23.84C40.56 32.92 33.16 40.3 24.08 40.3ZM33.12 27.98C32.62 27.74 30.18 26.54 29.74 26.36C29.28 26.2 28.96 26.12 28.62 26.6C28.28 27.1 27.34 28.22 27.06 28.54C26.78 28.88 26.48 28.92 25.98 28.66C25.48 28.42 23.88 27.88 22 26.2C20.52 24.88 19.54 23.26 19.24 22.76C18.96 22.26 19.2 22 19.46 21.74C19.68 21.52 19.96 21.16 20.2 20.88C20.44 20.6 20.54 20.38 20.7 20.06C20.86 19.72 20.78 19.44 20.66 19.2C20.54 18.96 19.54 16.52 19.14 15.52C18.74 14.56 18.32 14.68 18.02 14.66H17.06C16.72 14.66 16.2 14.78 15.74 15.28C15.3 15.78 14.02 16.98 14.02 19.42C14.02 21.86 15.8 24.22 16.04 24.54C16.28 24.88 19.54 29.88 24.5 32.02C25.68 32.54 26.6 32.84 27.32 33.06C28.5 33.44 29.58 33.38 30.44 33.26C31.4 33.12 33.38 32.06 33.78 30.9C34.2 29.74 34.2 28.76 34.06 28.54C33.92 28.32 33.62 28.22 33.12 27.98Z" fill="black"/>
</svg>
