<svg width="48" height="48" viewBox="0 0 48 48" fill="none" xmlns="http://www.w3.org/2000/svg">
<path d="M38.46 30.52L33.38 29.94C32.7826 29.8698 32.1772 29.936 31.6091 30.1334C31.041 30.3309 30.525 30.6545 30.1 31.08L26.42 34.76C20.7427 31.8719 16.1281 27.2572 13.24 21.58L16.94 17.88C17.8 17.02 18.22 15.82 18.08 14.6L17.5 9.56C17.387 8.58418 16.9189 7.68405 16.1849 7.03119C15.4509 6.37833 14.5023 6.0184 13.52 6.02H10.06C7.79996 6.02 5.91996 7.9 6.05996 10.16C7.11996 27.24 20.78 40.88 37.84 41.94C40.1 42.08 41.98 40.2 41.98 37.94V34.48C42 32.46 40.48 30.76 38.46 30.52Z" fill="black"/>
</svg>
